# xmcd CD database file
#
# Track frame offsets:
#	150
#	20368
#	40314
#	61734
#	79336
#	99641
#	119995
#	140290
#	162514
#	185010
#	207008
#	225829
#	247277
#	266419
#	290921
#
# Disc length: 4102 seconds
#
# Revision: 3
# Processed by: cddbd v1.5.1PL2 Copyright (c) Steve Scherf et al.
# Submitted via: CDex 1.51
#
DISCID=de10040f
DTITLE=Various Artist - 大阪ソウルバラード
DYEAR=1900
DGENRE=Blues
TTITLE0=やしきたかじん/やっぱ好きやねん
TTITLE1=上田正樹/悲しい色やね
TTITLE2=BORO/大阪で生まれた女
TTITLE3=河島英五/酒と泪と男と女
TTITLE4=やしきたかじん/生まれる前から好きやった
TTITLE5=憂歌団/大阪ビッグ・リバー・ブルース
TTITLE6=シャ乱Q/大阪エレジー
TTITLE7=やしきたかじん/なめとんか
TTITLE8=トミーズ雅/いじめんといて
TTITLE9=上田正樹/OSAKA ON MY MIND
TTITLE10=やしきたかじん/あんた
TTITLE11=門田頼命/お前が好きやねん
TTITLE12=間　寛平/大阪で生まれた男
TTITLE13=やしきたかじん/大阪恋物語
TTITLE14=ファンキー・プリンス/おやすみ大阪
EXTD=
EXTT0=
EXTT1=
EXTT2=
EXTT3=
EXTT4=
EXTT5=
EXTT6=
EXTT7=
EXTT8=
EXTT9=
EXTT10=
EXTT11=
EXTT12=
EXTT13=
EXTT14=
PLAYORDER=
